mtllib materials.mtl
v 0.04311747 0.2551346 -0.1629665
v 0.03919542 0.254398 -0.1442555
v 0.03894948 -0.1566138 -0.1604855
v 0.0428715 -0.1558774 -0.1791965
v 0.1138512 -0.1572776 -0.1448115
v 0.1177732 -0.1565411 -0.1635224
v 0.1180192 0.2544707 -0.1472924
v 0.1140971 0.2537342 -0.1285815
v 0.1178233 -0.07290506 -0.1602198
v 0.1178962 0.04896474 -0.1554074
v 0.1139742 0.04822814 -0.1366965
v 0.1139013 -0.07364154 -0.1415088
v 0.2740837 0.08955777 -0.12257
v 0.2697388 0.08774507 -0.1040264
v -0.1308353 0.09388924 -0.197284
v -0.1264904 0.09570205 -0.2158273
v -0.1302994 0.0177151 -0.2046047
v -0.1259545 0.01952779 -0.2231482
v 0.2746195 0.01338351 -0.1298908
v 0.2702747 0.01157081 -0.1113472
v -0.04444234 0.01827753 -0.2041714
v 0.07433232 0.01645577 -0.1765195
v 0.06998748 0.01464307 -0.157976
v -0.04878729 0.01646483 -0.1856279
v -0.1919038 0.6024697 0.5013304
v -0.1958437 0.6070502 0.3973763
v 0.0002920739 0.6401894 0.4435554
v -0.1472284 0.6111088 0.3053815
v -0.05908428 0.6135578 0.2499961
v 0.0449708 0.6137412 0.2460603
v 0.1370548 0.6116097 0.2946289
v 0.1924946 0.6077346 0.3826878
v 0.1964346 0.6031539 0.486642
v 0.1478193 0.5990953 0.5786368
v 0.05967513 0.5966463 0.6340222
v -0.04437993 0.596463 0.637958
v -0.1364642 0.5985944 0.5893894
v -0.3609113 0.4991252 0.5490446
v -0.3683163 0.5077338 0.3536748
v -0.2769493 0.5153614 0.1807811
v -0.1112923 0.5199642 0.07669032
v 0.08426709 0.520309 0.0692935
v 0.257329 0.5163031 0.1605726
v 0.3615214 0.5090201 0.3260695
v 0.3689262 0.5004115 0.5214393
v 0.2775594 0.4927838 0.694333
v 0.1119025 0.4881811 0.7984238
v -0.08365693 0.4878364 0.8058206
v -0.2567189 0.4918423 0.7145414
v -0.4863455 0.3426205 0.5809429
v -0.4963222 0.3542188 0.317722
v -0.3732237 0.3644955 0.08478284
v -0.1453775 0.3856843 -0.08839071
v 0.1179957 0.3791827 -0.09895766
v 0.3512273 0.3680041 0.02350628
v 0.4869852 0.3559518 0.2805294
v 0.496962 0.3443534 0.5437504
v 0.3738635 0.3340768 0.7766894
v 0.1506746 0.3278755 0.9169303
v -0.1128019 0.3274112 0.9268962
v -0.3459677 0.3328081 0.8039162
v -0.5530775 0.1518327 0.5931779
v -0.5644224 0.1650219 0.2938539
v -0.4244402 0.1767081 0.02896535
v -0.170639 0.1837599 -0.1305107
v 0.1289754 0.184288 -0.1418434
v 0.3941216 0.1781507 -0.001995921
v 0.5537537 0.1669925 0.2515601
v 0.5650986 0.1538033 0.5508841
v 0.4251162 0.1421171 0.8157725
v 0.1713151 0.1350653 0.9752487
v -0.1282993 0.1345372 0.9865813
v -0.3934456 0.1406746 0.8467336
v -0.5450427 -0.2826428 0.5804851
v -0.5563876 -0.2694538 0.2811612
v -0.4164054 -0.2577673 0.01627266
v -0.1626043 -0.2507153 -0.1432035
v -0.01279688 -0.2504514 -0.1488699
v 0.1370101 -0.2501874 -0.1545361
v 0.2695832 -0.2532556 -0.08461249
v 0.4021564 -0.2563242 -0.01468861
v 0.5617886 -0.2674829 0.2388672
v 0.5731331 -0.280672 0.5381914
v 0.4331509 -0.2923584 0.8030797
v 0.1793498 -0.29941 0.9625559
v -0.1202647 -0.2999384 0.9738885
v -0.3854109 -0.2938004 0.8340409
v 0.334702 -0.2712777 -0.6849352
v 0.1949335 -0.2642899 -0.738063
v 0.03582706 -0.2651635 -0.7564465
v -0.1046807 -0.2648177 -0.72673
v -0.2315814 -0.2683438 -0.6469923
v -0.2523522 -0.323123 0.9031978
v -0.1197788 -0.3261917 0.9731216
v 0.1798354 -0.3256636 0.961789
v 0.4336365 -0.3186119 0.8023127
v 0.5576612 -0.2803006 -0.4967345
v 0.4600794 -0.270427 -0.5982155
v 0.6197118 -0.2815855 -0.3446592
v 0.5736186 -0.3069255 0.5374244
v -0.3906827 -0.2914164 -0.4790455
v -0.555902 -0.295707 0.2803943
v -0.5445572 -0.3088963 0.5797181
v -0.3849251 -0.3200543 0.8332739
vn -0.9787616 0.00867355 -0.2048183
vn -0.000598111 -0.9992211 -0.03945712
vn 0.0005983031 0.9992211 0.03945715
vn 0.2049991 0.03849667 -0.9780048
vn -0.2049995 -0.03849673 0.9780048
vn 0.9787614 -0.008673475 0.204819
vn 0.9787614 -0.008674003 0.2048192
vn -0.007003565 0.9953891 0.09566373
vn -0.9738448 0.01493828 -0.2267229
vn 0.9738459 -0.0149383 0.2267179
vn 0.2271039 0.09474865 -0.9692505
vn -0.2271041 -0.09474768 0.9692506
vn 0.007002701 -0.9953893 -0.09566112
vn 0.007004241 -0.9953892 -0.09566208
vn -0.177835 0.982787 0.05004482
vn -0.1573873 0.9867411 -0.03963988
vn -0.09479296 0.9897196 -0.1070955
vn -0.006824141 0.9909245 -0.1342465
vn 0.08294825 0.9900329 -0.1138181
vn 0.150469 0.9872836 -0.05128473
vn 0.1776471 0.9834135 0.03659955
vn 0.1571993 0.9794594 0.1262843
vn 0.09460499 0.9764808 0.1937398
vn 0.006636283 0.975276 0.2208908
vn -0.08313601 0.9761676 0.2004625
vn -0.1506571 0.9789168 0.1379285
vn -0.5090353 0.8588471 0.0571371
vn -0.4504841 0.8701697 -0.199672
vn -0.2712483 0.8786985 -0.3928273
vn -0.01935368 0.8821486 -0.4705734
vn 0.2377049 0.8795954 -0.4120779
vn 0.4310485 0.8717232 -0.233015
vn 0.5088712 0.860641 0.01863568
vn 0.45032 0.8493187 0.2754445
vn 0.271084 0.8407899 0.4685999
vn 0.01918934 0.8373398 0.5463461
vn -0.2378694 0.8398927 0.4878508
vn -0.4312131 0.8477651 0.3087875
vn -0.7733185 0.6314381 0.05713388
vn -0.6843613 0.6486403 -0.3330397
vn -0.4372764 0.7078401 -0.5547538
vn -0.01458752 0.7708364 -0.6368663
vn 0.3296301 0.7501231 -0.5732883
vn 0.6511405 0.6791878 -0.3387036
vn 0.7731974 0.634164 -0.001362487
vn 0.6842402 0.6169617 0.3888106
vn 0.4119252 0.6040033 0.6822739
vn 0.02921909 0.5987616 0.8003941
vn -0.3613327 0.6026411 0.7115212
vn -0.6550822 0.6146015 0.4394684
vn -0.941718 0.3326141 0.05034916
vn -0.8333844 0.3535633 -0.4248099
vn -0.5534627 0.3035264 -0.775597
vn -0.03576751 0.2105624 -0.9769259
vn 0.4605173 0.2174531 -0.8606033
vn 0.8297089 0.3072091 -0.4660535
vn 0.9416542 0.3359333 -0.02088844
vn 0.8333204 0.3149843 0.4542709
vn 0.5016906 0.2992039 0.8116549
vn 0.03562532 0.29282 0.9555037
vn -0.4399952 0.2975438 0.8472733
vn -0.797728 0.3121098 0.5159627
vn -0.9991236 -0.0195581 0.03700674
vn -0.8840843 -0.002697262 -0.4673197
vn -0.5322752 0.01488447 -0.8464406
vn -0.03783199 0.02848166 -0.9988782
vn 0.4668687 0.03444894 -0.8836554
vn 0.8464609 0.03118208 -0.5315371
vn 0.9991237 0.01955781 -0.03700623
vn 0.8840843 0.002696754 0.4673198
vn 0.5322753 -0.0148846 0.8464405
vn 0.03783192 -0.02848162 0.9988781
vn -0.4668691 -0.03444888 0.8836552
vn -0.8464611 -0.03118193 0.5315369
vn -0.00360827 -0.9993792 -0.03504674
vn 0.8208476 0.5695475 0.04271808
vn 0.095639 0.9952808 -0.01641129
vn 0.02357392 0.9994177 -0.02466997
vn -0.002676282 0.9996981 -0.02442363
vn -0.0936597 0.9947197 -0.04196089
vn -0.4819708 0.8664762 -0.1300896
vn -0.9991236 -0.01956089 0.0370064
vn -0.8464609 -0.03118916 0.5315368
vn -0.466869 -0.03445188 0.8836551
vn 0.03783188 -0.02848118 0.9988782
vn 0.5322754 -0.01488422 0.8464405
vn 0.8840844 0.002696486 0.4673196
vn 0.03675447 -0.9989786 -0.02628632
vn 0.01233806 -0.9995471 -0.02744748
vn -0.002694233 0.999698 -0.02442512
vn 0.04691525 0.9986517 -0.02222299
vt 0.009941113 0.2460886
vt 0.008704105 0.2446291
vt 0.04008261 0.2180334
vt 0.04131962 0.2194928
vt -0.1794583 0.07607202
vt -0.1753497 0.08252832
vt -0.1769638 0.08355545
vt -0.1810723 0.07709916
vt 0.1769638 0.08355543
vt 0.1753497 0.08252829
vt 0.1794583 0.07607199
vt 0.1810724 0.07709913
vt -0.1088028 0.03083164
vt -0.1161697 0.03480507
vt -0.1269042 0.04059494
vt -0.1450057 0.05035824
vt -0.1486386 0.0436228
vt -0.1124356 0.0240962
vt 0.1486386 0.04362272
vt 0.1450058 0.05035817
vt 0.1269043 0.04059486
vt 0.1161697 0.03480501
vt 0.1088028 0.03083157
vt 0.1124357 0.02409613
vt -0.03493432 0.2249048
vt -0.03369731 0.2234453
vt -0.02439322 0.2313312
vt -0.008703953 0.2446291
vt -0.00994096 0.2460885
vt -0.02563023 0.2327907
vt -0.03493441 0.2249047
vt -0.04131956 0.2194928
vt -0.04131956 0.2194928
vt -0.04008255 0.2180334
vt -0.04008255 0.2180334
vt -0.03369739 0.2234453
vt -0.03369739 0.2234453
vt -0.03493441 0.2249047
vt 0.1727861 0.1043596
vt 0.1712195 0.1032615
vt 0.1948297 0.06957914
vt 0.1963963 0.0706773
vt 0.0183948 0.2340981
vt 0.02455939 0.2295636
vt 0.02569301 0.2311047
vt 0.01952841 0.2356392
vt -0.02569403 0.2311048
vt -0.02456039 0.2295636
vt -0.01839582 0.2340982
vt -0.01952945 0.2356393
vt -0.128455 0.004515025
vt -0.1246192 0.01195446
vt -0.1190298 0.02279478
vt -0.1096045 0.04107456
vt -0.1164063 0.04458165
vt -0.1352568 0.008022119
vt 0.1164064 0.04458177
vt 0.1096046 0.04107467
vt 0.11903 0.0227949
vt 0.1246193 0.01195458
vt 0.1284552 0.004515148
vt 0.135257 0.008022239
vt -0.1915917 0.07753088
vt -0.1900251 0.07643272
vt -0.1830244 0.08641993
vt -0.1712193 0.1032611
vt -0.172786 0.1043593
vt -0.1845911 0.08751807
vt -0.1915918 0.07753111
vt -0.1963962 0.07067714
vt -0.1963962 0.07067714
vt -0.1948296 0.06957899
vt -0.1948296 0.06957899
vt -0.1900251 0.07643295
vt -0.1900251 0.07643295
vt -0.1915918 0.07753111
vt 0.1197584 0.06238709
vt 0.1296918 0.0655105
vt 0.1188023 0.08278526
vt 0.1158506 0.05341984
vt 0.1231219 0.06087354
vt 0.1053521 0.07093499
vt 0.1145578 0.04260559
vt 0.1173737 0.05263054
vt 0.09695579 0.05295787
vt 0.1170846 0.03308455
vt 0.1145984 0.04319636
vt 0.09666684 0.03342596
vt 0.1232444 0.02919084
vt 0.1159046 0.03657706
vt 0.1055683 0.01896571
vt 0.1307311 0.03385368
vt 0.1205699 0.03612975
vt 0.1213345 0.01572349
vt 0.1360924 0.04538974
vt 0.1263386 0.04174384
vt 0.1381291 0.02507098
vt 0.1376179 0.05807134
vt 0.1313123 0.04978473
vt 0.1501787 0.0419708
vt 0.1361893 0.06707175
vt 0.1349819 0.05672904
vt 0.1551981 0.05961084
vt 0.1332139 0.07116154
vt 0.1372103 0.06154601
vt 0.1534457 0.07393202
vt 0.1293137 0.07127081
vt 0.1374113 0.06472421
vt 0.1457766 0.08335274
vt 0.1246579 0.06832051
vt 0.1348888 0.0663817
vt 0.1334498 0.08675151
vt 0.103181 0.101853
vt 0.121902 0.1075545
vt 0.1117375 0.1252148
vt 0.1017762 0.1221811
vt 0.07888862 0.08334801
vt 0.09316468 0.09673372
vt 0.07624371 0.1080864
vt 0.06864758 0.100964
vt 0.06220125 0.04740389
vt 0.06960805 0.06551804
vt 0.04949674 0.068795
vt 0.04555567 0.05915667
vt 0.05955334 0.002345586
vt 0.05864996 0.02189468
vt 0.03902699 0.01640452
vt 0.03950766 0.006002656
vt 0.07800154 -0.03458639
vt 0.0676036 -0.01800729
vt 0.05321528 -0.03243571
vt 0.05874791 -0.04125724
vt 0.1209045 -0.03154846
vt 0.1022818 -0.02553377
vt 0.1005362 -0.04583538
vt 0.1104452 -0.04903575
vt 0.1544394 0.02572785
vt 0.1372505 0.01637253
vt 0.1507637 0.001121495
vt 0.1599098 0.006099363
vt 0.1570919 0.07617966
vt 0.1490303 0.05834728
vt 0.1690089 0.05434006
vt 0.1732984 0.06382848
vt 0.1526329 0.09648608
vt 0.1538275 0.07695261
vt 0.1733665 0.08273457
vt 0.1727309 0.0931281
vt 0.1483025 0.1006481
vt 0.1574977 0.08337298
vt 0.1728737 0.09674396
vt 0.167981 0.1059359
vt 0.1410856 0.1018454
vt 0.1567 0.09004824
vt 0.1650162 0.1086505
vt 0.1567079 0.1149276
vt 0.1262383 0.1045837
vt 0.1454838 0.1010347
vt 0.144582 0.1213913
vt 0.1343417 0.1232797
vt 0.08651552 0.1351378
vt 0.1115149 0.1435179
vt 0.101929 0.1614221
vt 0.0833738 0.1552022
vt 0.04044028 0.1177538
vt 0.05931863 0.1361603
vt 0.04290767 0.148124
vt 0.02889565 0.1344622
vt 0.02721577 0.07274763
vt 0.04014121 0.09834342
vt 0.01894642 0.1020744
vt 0.01062181 0.08440021
vt 0.03109422 -0.008138105
vt 0.033447 0.01812238
vt 0.01136347 0.0156935
vt 0.009980003 -0.003826339
vt 0.04028412 -0.06787711
vt 0.03189865 -0.04288015
vt 0.01174263 -0.05234968
vt 0.01826038 -0.0708016
vt 0.105747 -0.09558486
vt 0.07929934 -0.08348456
vt 0.07314449 -0.1028262
vt 0.09051392 -0.1118161
vt 0.1633026 0.064148
vt 0.1470095 0.04341815
vt 0.1648515 0.03371706
vt 0.1769447 0.04910333
vt 0.1453564 0.1247203
vt 0.1429381 0.09846485
vt 0.163188 0.1000124
vt 0.1649828 0.1194999
vt 0.1430967 0.1255132
vt 0.1489848 0.09981252
vt 0.1677428 0.1075964
vt 0.1633725 0.1266721
vt 0.1461175 0.1111676
vt 0.1593825 0.08838096
vt 0.1749768 0.1013912
vt 0.1651312 0.1183041
vt 0.1457885 0.1054238
vt 0.1663576 0.08892804
vt 0.1762332 0.1066741
vt 0.1609663 0.1189177
vt 0.1284261 0.1203554
vt 0.1542607 0.1150858
vt 0.1549327 0.1353835
vt 0.1357576 0.1392948
vt 0.06603224 0.1586124
vt 0.09359103 0.1704229
vt 0.08398457 0.1882483
vt 0.05974979 0.1778623
vt -0.00136335 0.1456658
vt 0.01823426 0.1683574
vt 0.001788687 0.1801714
vt -0.01544517 0.1602167
vt -0.0502056 0.105768
vt -0.0367884 0.1325413
vt -0.05511737 0.1422244
vt -0.06741528 0.1163373
vt -0.1030893 0.03628913
vt -0.09160947 0.06398725
vt -0.1105066 0.07049353
vt -0.1212392 0.04641026
vt -0.1310616 -0.02261829
vt -0.1183045 0.004515258
vt -0.1371348 0.01006194
vt -0.148871 -0.0135485
vt -0.1658904 -0.02939152
vt -0.1451642 -0.007753131
vt -0.1609347 0.004901554
vt -0.1806351 -0.01647786
vt 0.05777226 0.181663
vt 0.06748429 0.1532966
vt 0.08597946 0.1615402
vt 0.07743886 0.1864851
vt 0.09546954 0.1705245
vt 0.1033716 0.1416017
vt 0.1223503 0.1486613
vt 0.1154013 0.1740957
vt 0.1138146 0.1400152
vt 0.1241509 0.1118703
vt 0.1424595 0.1205204
vt 0.1333699 0.1452706
vt 0.1300329 0.1010528
vt 0.1447251 0.07491636
vt 0.1614199 0.0863754
vt 0.1484999 0.1093594
vt 0.1434689 0.08106208
vt 0.1649146 0.06010843
vt 0.1777159 0.07579775
vt 0.1588569 0.0942241
vt 0.1328775 0.1124114
vt 0.1618774 0.1047968
vt 0.1652505 0.124763
vt 0.1397484 0.1314592
vt 0.03922182 0.1538307
vt 0.06341789 0.1715373
vt 0.03829165 0.2070144
vt 0.01409558 0.1893077
vt -0.03391135 0.1460834
vt -0.01881836 0.1719904
vt -0.0562826 0.1940444
vt -0.07137561 0.1681373
vt -0.06856216 0.1000842
vt -0.05610372 0.1273562
vt -0.0957839 0.1451164
vt -0.1082424 0.1178444
vt -0.0950249 0.04046239
vt -0.08851199 0.05396522
vt -0.08199912 0.06746802
vt -0.1214859 0.08565417
vt -0.1345117 0.05864853
vt -0.1256837 -0.004430686
vt -0.1171798 0.007915479
vt -0.1086759 0.02026164
vt -0.1450404 0.04408531
vt -0.1620482 0.01939301
vt -0.1581617 0.03811414
vt -0.1307711 0.05030965
vt -0.1493369 0.08961942
vt -0.1767274 0.07742386
vt -0.06459504 0.1699287
vt -0.04039895 0.1522221
vt -0.01527271 0.187699
vt -0.03946877 0.2054057
vt 0.0165768 0.1706845
vt 0.03166979 0.1447775
vt 0.06913403 0.1668314
vt 0.05404101 0.1927385
vt 0.05382959 0.1263173
vt 0.06628807 0.09904535
vt 0.1059683 0.1168056
vt 0.09350979 0.1440776
vt 0.08043523 0.06671368
vt 0.09346095 0.03970801
vt 0.1329478 0.05789418
vt 0.119922 0.08489983
vt 0.1082583 0.01997394
vt 0.1252662 -0.004718315
vt 0.1616307 0.01910537
vt 0.1446228 0.04379768
vt 0.1311202 0.05109388
vt 0.1585107 0.03889829
vt 0.1770765 0.07820807
vt 0.1496859 0.09040362
vt -0.2175178 0.1213383
vt -0.2274215 0.1101235
vt -0.2347266 0.09587125
vt -0.236882 0.08167256
vt -0.2338661 0.06698812
vt -0.08936127 0.01056488
vt -0.07815209 0.02051972
vt -0.06869149 0.04897066
vt -0.07472357 0.07833955
vt -0.192047 0.1355976
vt -0.2050032 0.1300331
vt 0.1065444 0.1244971
vt 0.1238341 0.1805284
vt 0.09194435 0.09813119
vt 0.09397156 0.0973167
vt 0.1515658 0.09153426
vt 0.2043283 0.11716
vt 0.1914267 0.1228767
vt 0.1750129 0.1234515
vt 0.1222504 0.0978258
vt 0.1605302 0.08608782
vt 0.2150875 0.1120301
vt 0.2027694 0.1210102
vt 0.1495668 0.09631129
vt 0.1752051 0.06363313
vt 0.2310857 0.08801865
vt 0.2241657 0.1024633
vt 0.1708625 0.0779818
vt 0.1679536 0.0260794
vt 0.2144516 0.04360088
vt 0.2253959 0.06405719
vt 0.2290772 0.07858088
vt 0.1753164 0.05512679
vt 0.1210958 0.04625932
vt 0.1218341 0.04520119
vt 0.1899418 0.08257439
vt 0.1428741 0.06673975
vt 0.03922125 0.1538309
vt 0.04073953 0.1516872
vt 0.06493552 0.1693939
vt 0.06341726 0.1715376
vt 0.1311205 0.0510929
vt 0.1299986 0.04871755
vt 0.157389 0.03652181
vt 0.1585109 0.03889712
vt 0.1082582 0.01997358
vt 0.1060608 0.01853406
vt 0.1145647 0.006187876
vt 0.1230686 -0.006158276
vt 0.125266 -0.004718716
vt 0.08043525 0.06671371
vt 0.07804922 0.0656148
vt 0.09107497 0.03860917
vt 0.09346098 0.03970804
vt 0.05382962 0.1263174
vt 0.05143191 0.1252442
vt 0.06389038 0.09797219
vt 0.06628809 0.09904537
vt 0.01657676 0.1706845
vt 0.01431295 0.1693519
vt 0.02940595 0.1434449
vt 0.03166975 0.1447775
vt -0.07332442 0.08103351
vt -0.09344788 0.10326
vt -0.1747959 0.1377691
vt -0.1912087 0.1371319
vt -0.2329901 0.06686953
vt -0.2226872 0.0460934
vt -0.1571498 0.004355628
vt -0.1286504 -0.00494488
vt -0.09932144 0.001252357
vt -0.08817148 0.01126956
vt 0.1752045 0.06363438
vt 0.1795471 0.04928565
vt 0.2328504 0.07376698
vt 0.2310852 0.08801971
vt 0.1612239 0.08451996
vt 0.1722408 0.07435404
vt 0.2253148 0.09932815
vt 0.2156428 0.1107515
o group1032443489
g mesh1032443489
usemtl mat21
f 4/4/1 3/3/1 2/2/1 1/1/1
f 4/8/2 6/7/2 5/6/2 3/5/2
f 1/12/3 2/11/3 8/10/3 7/9/3
f 4/18/4 1/17/4 7/16/4 10/15/4 9/14/4 6/13/4
f 3/24/5 5/23/5 12/22/5 11/21/5 8/20/5 2/19/5
f 10/30/6 7/29/6 8/28/6 11/27/6 12/26/6 9/25/6
f 9/38/7 12/37/7 12/36/7 5/35/7 5/34/7 6/33/7 6/32/7 9/31/7
f 16/42/8 15/41/8 14/40/8 13/39/8
f 16/46/9 18/45/9 17/44/9 15/43/9
f 13/50/10 14/49/10 20/48/10 19/47/10
f 16/56/11 13/55/11 19/54/11 22/53/11 21/52/11 18/51/11
f 15/62/12 17/61/12 24/60/12 23/59/12 20/58/12 14/57/12
f 22/68/13 19/67/13 20/66/13 23/65/13 24/64/13 21/63/13
f 21/76/14 24/75/14 24/74/14 17/73/14 17/72/14 18/71/14 18/70/14 21/69/14
usemtl mat8
f 27/79/15 26/78/15 25/77/15
f 27/82/16 28/81/16 26/80/16
f 27/85/17 29/84/17 28/83/17
f 27/88/18 30/87/18 29/86/18
f 27/91/19 31/90/19 30/89/19
f 27/94/20 32/93/20 31/92/20
f 27/97/21 33/96/21 32/95/21
f 27/100/22 34/99/22 33/98/22
f 27/103/23 35/102/23 34/101/23
f 27/106/24 36/105/24 35/104/24
f 27/109/25 37/108/25 36/107/25
f 27/112/26 25/111/26 37/110/26
f 25/116/27 26/115/27 39/114/27 38/113/27
f 26/120/28 28/119/28 40/118/28 39/117/28
f 28/124/29 29/123/29 41/122/29 40/121/29
f 29/128/30 30/127/30 42/126/30 41/125/30
f 30/132/31 31/131/31 43/130/31 42/129/31
f 31/136/32 32/135/32 44/134/32 43/133/32
f 32/140/33 33/139/33 45/138/33 44/137/33
f 33/144/34 34/143/34 46/142/34 45/141/34
f 34/148/35 35/147/35 47/146/35 46/145/35
f 35/152/36 36/151/36 48/150/36 47/149/36
f 36/156/37 37/155/37 49/154/37 48/153/37
f 37/160/38 25/159/38 38/158/38 49/157/38
f 38/164/39 39/163/39 51/162/39 50/161/39
f 39/168/40 40/167/40 52/166/40 51/165/40
f 40/172/41 41/171/41 53/170/41 52/169/41
f 41/176/42 42/175/42 54/174/42 53/173/42
f 42/180/43 43/179/43 55/178/43 54/177/43
f 43/184/44 44/183/44 56/182/44 55/181/44
f 44/188/45 45/187/45 57/186/45 56/185/45
f 45/192/46 46/191/46 58/190/46 57/189/46
f 46/196/47 47/195/47 59/194/47 58/193/47
f 47/200/48 48/199/48 60/198/48 59/197/48
f 48/204/49 49/203/49 61/202/49 60/201/49
f 49/208/50 38/207/50 50/206/50 61/205/50
f 50/212/51 51/211/51 63/210/51 62/209/51
f 51/216/52 52/215/52 64/214/52 63/213/52
f 52/220/53 53/219/53 65/218/53 64/217/53
f 53/224/54 54/223/54 66/222/54 65/221/54
f 54/228/55 55/227/55 67/226/55 66/225/55
f 55/232/56 56/231/56 68/230/56 67/229/56
f 56/236/57 57/235/57 69/234/57 68/233/57
f 57/240/58 58/239/58 70/238/58 69/237/58
f 58/244/59 59/243/59 71/242/59 70/241/59
f 59/248/60 60/247/60 72/246/60 71/245/60
f 60/252/61 61/251/61 73/250/61 72/249/61
f 61/256/62 50/255/62 62/254/62 73/253/62
f 62/260/63 63/259/63 75/258/63 74/257/63
f 63/264/64 64/263/64 76/262/64 75/261/64
f 64/268/65 65/267/65 77/266/65 76/265/65
f 65/273/66 66/272/66 79/271/66 78/270/66 77/269/66
f 66/278/67 67/277/67 81/276/67 80/275/67 79/274/67
f 67/282/68 68/281/68 82/280/68 81/279/68
f 68/286/69 69/285/69 83/284/69 82/283/69
f 69/290/70 70/289/70 84/288/70 83/287/70
f 70/294/71 71/293/71 85/292/71 84/291/71
f 71/298/72 72/297/72 86/296/72 85/295/72
f 72/302/73 73/301/73 87/300/73 86/299/73
f 73/306/74 62/305/74 74/304/74 87/303/74
f 98/317/75 97/316/75 96/315/75 95/314/75 94/313/75 93/312/75 92/311/75 91/310/75 90/309/75 89/308/75 88/307/75
f 83/321/76 100/320/76 99/319/76 82/318/76
f 82/326/77 99/325/77 97/324/77 98/323/77 81/322/77
f 81/330/78 98/329/78 88/328/78 80/327/78
f 79/334/79 89/333/79 90/332/79 78/331/79
f 77/339/80 91/338/80 92/337/80 101/336/80 76/335/80
f 76/343/81 101/342/81 102/341/81 75/340/81
f 75/347/82 102/346/82 103/345/82 74/344/82
f 74/351/83 103/350/83 104/349/83 87/348/83
f 87/356/84 104/355/84 93/354/84 94/353/84 86/352/84
f 86/360/85 94/359/85 95/358/85 85/357/85
f 85/364/86 95/363/86 96/362/86 84/361/86
f 84/368/87 96/367/87 100/366/87 83/365/87
f 97/372/88 99/371/88 100/370/88 96/369/88
f 93/378/89 104/377/89 103/376/89 102/375/89 101/374/89 92/373/89
f 90/382/90 91/381/90 77/380/90 78/379/90
f 88/386/91 89/385/91 79/384/91 80/383/91
